<svg xmlns="http://www.w3.org/2000/svg" viewBox="0 0 30 20" role="img" aria-label="United States">
  <rect width="30" height="20" rx="1.5" fill="#fff"/>
  <path fill="#B22234" d="M0 0h30v1.54H0zm0 3.08h30v1.54H0zm0 3.07h30v1.54H0zm0 3.08h30v1.54H0zm0 3.08h30v1.54H0zm0 3.07h30v1.54H0zm0 3.08h30V20H0z"/>
  <path fill="#3C3B6E" d="M0 0h13.2v10.77H0z"/>
  <g fill="#fff">
    <circle cx="1.4" cy="1.3" r=".35"/><circle cx="3.5" cy="1.3" r=".35"/><circle cx="5.6" cy="1.3" r=".35"/><circle cx="7.7" cy="1.3" r=".35"/><circle cx="9.8" cy="1.3" r=".35"/><circle cx="11.9" cy="1.3" r=".35"/>
    <circle cx="2.45" cy="2.7" r=".35"/><circle cx="4.55" cy="2.7" r=".35"/><circle cx="6.65" cy="2.7" r=".35"/><circle cx="8.75" cy="2.7" r=".35"/><circle cx="10.85" cy="2.7" r=".35"/>
    <circle cx="1.4" cy="4.1" r=".35"/><circle cx="3.5" cy="4.1" r=".35"/><circle cx="5.6" cy="4.1" r=".35"/><circle cx="7.7" cy="4.1" r=".35"/><circle cx="9.8" cy="4.1" r=".35"/><circle cx="11.9" cy="4.1" r=".35"/>
    <circle cx="2.45" cy="5.5" r=".35"/><circle cx="4.55" cy="5.5" r=".35"/><circle cx="6.65" cy="5.5" r=".35"/><circle cx="8.75" cy="5.5" r=".35"/><circle cx="10.85" cy="5.5" r=".35"/>
    <circle cx="1.4" cy="6.9" r=".35"/><circle cx="3.5" cy="6.9" r=".35"/><circle cx="5.6" cy="6.9" r=".35"/><circle cx="7.7" cy="6.9" r=".35"/><circle cx="9.8" cy="6.9" r=".35"/><circle cx="11.9" cy="6.9" r=".35"/>
    <circle cx="2.45" cy="8.3" r=".35"/><circle cx="4.55" cy="8.3" r=".35"/><circle cx="6.65" cy="8.3" r=".35"/><circle cx="8.75" cy="8.3" r=".35"/><circle cx="10.85" cy="8.3" r=".35"/>
    <circle cx="1.4" cy="9.7" r=".35"/><circle cx="3.5" cy="9.7" r=".35"/><circle cx="5.6" cy="9.7" r=".35"/><circle cx="7.7" cy="9.7" r=".35"/><circle cx="9.8" cy="9.7" r=".35"/><circle cx="11.9" cy="9.7" r=".35"/>
  </g>
</svg>
